HIERARCHY
ROOT Hips
{
 OFFSET 0.000000 0.000000 0.000000
 CHANNELS 6 Xposition Yposition Zposition Yrotation Xrotation Zrotation
 JOINT Chest
 {
  OFFSET 0.000000 11.395451 -0.039534
  CHANNELS 3 Yrotation Xrotation Zrotation
  JOINT Chest2
  {
   OFFSET 0.000000 9.398669 0.071813
   CHANNELS 3 Yrotation Xrotation Zrotation
   JOINT Chest3
   {
    OFFSET 0.000000 8.489801 0.000000
    CHANNELS 3 Yrotation Xrotation Zrotation
    JOINT Chest4
    {
     OFFSET 0.000000 8.489801 0.000000
     CHANNELS 3 Yrotation Xrotation Zrotation
     JOINT Neck
     {
      OFFSET 0.000000 12.404889 0.000000
      CHANNELS 3 Yrotation Xrotation Zrotation
      JOINT Head
      {
       OFFSET 0.000000 8.903270 0.092239
       CHANNELS 3 Yrotation Xrotation Zrotation
       End Site
       {
        OFFSET 0.000000 17.592497 0.007158
       }
      }
     }
     JOINT RightCollar
     {
      OFFSET -3.196775 6.966722 0.000000
      CHANNELS 3 Yrotation Xrotation Zrotation
      JOINT RightShoulder
      {
       OFFSET -15.955896 0.000000 0.000000
       CHANNELS 3 Yrotation Xrotation Zrotation
       JOINT RightElbow
       {
        OFFSET -24.792472 0.000000 0.000000
        CHANNELS 3 Yrotation Xrotation Zrotation
        JOINT RightWrist
        {
         OFFSET -20.900115 0.000000 0.025002
         CHANNELS 3 Yrotation Xrotation Zrotation
         End Site
         {
          OFFSET -16.056692 0.000000 0.000000
         }
        }
       }
      }
     }
     JOINT LeftCollar
     {
      OFFSET 3.196775 6.966722 0.000000
      CHANNELS 3 Yrotation Xrotation Zrotation
      JOINT LeftShoulder
      {
       OFFSET 15.955896 0.000000 0.000000
       CHANNELS 3 Yrotation Xrotation Zrotation
       JOINT LeftElbow
       {
        OFFSET 24.792472 0.000000 0.000000
        CHANNELS 3 Yrotation Xrotation Zrotation
        JOINT LeftWrist
        {
         OFFSET 20.900115 0.000000 0.025002
         CHANNELS 3 Yrotation Xrotation Zrotation
         End Site
         {
          OFFSET 16.056692 0.000000 0.000000
         }
        }
       }
      }
     }
    }
   }
  }
 }
 JOINT RightHip
 {
  OFFSET -9.568995 0.193718 0.019767
  CHANNELS 3 Yrotation Xrotation Zrotation
  JOINT RightKnee
  {
   OFFSET 0.000000 -56.649296 0.015402
   CHANNELS 3 Yrotation Xrotation Zrotation
   JOINT RightAnkle
   {
    OFFSET 0.000000 -41.365147 0.021264
    CHANNELS 3 Yrotation Xrotation Zrotation
    JOINT RightToe
    {
     OFFSET 0.000000 -7.465940 17.672538
     CHANNELS 3 Yrotation Xrotation Zrotation
     End Site
     {
      OFFSET 0.000000 -1.736315 7.837145
     }
    }
   }
  }
 }
 JOINT LeftHip
 {
  OFFSET 9.568995 0.193718 0.019767
  CHANNELS 3 Yrotation Xrotation Zrotation
  JOINT LeftKnee
  {
   OFFSET 0.000000 -56.649296 0.015402
   CHANNELS 3 Yrotation Xrotation Zrotation
   JOINT LeftAnkle
   {
    OFFSET 0.000000 -41.365147 0.021264
    CHANNELS 3 Yrotation Xrotation Zrotation
    JOINT LeftToe
    {
     OFFSET 0.000000 -7.465940 17.672538
     CHANNELS 3 Yrotation Xrotation Zrotation
     End Site
     {
      OFFSET 0.000000 -1.736315 7.837145
     }
    }
   }
  }
 }
}
MOTION
Frames: 15
Frame Time: 0.016667
25.084926 107.662105 259.072374 -130.975606 3.133622 -4.149884 -4.120169 7.858781 -0.223643 -1.822960 3.494663 -0.029217 -1.822965 3.494655 -0.029214 -1.366636 2.621101 -0.011466 -12.672721 16.920524 6.121290 -25.415729 -2.372756 15.449396 0.548587 1.813379 8.543712 11.431299 -22.739096 53.319195 34.680216 -40.149280 27.816201 -9.545999 -17.896277 12.762207 -1.568974 8.039523 -2.975021 -4.843782 -34.682882 -47.492284 -27.802451 -42.484709 -41.386655 15.310295 -20.975261 -2.063947 1.641337 -16.547117 -1.268311 -10.997373 22.386442 0.420169 5.942892 -11.543435 3.228762 0.000000 0.000000 0.000000 10.428207 -4.146940 2.644531 1.609103 -1.289421 -1.040350 6.089127 -0.793085 1.032334 0.000000 -0.000000 0.000000
25.056175 107.679646 258.910093 -131.793494 3.148134 -4.207716 -4.168206 7.852547 -0.150784 -1.845496 3.491272 0.003841 -1.845496 3.491272 0.003841 -1.383715 2.618471 0.013435 -12.644365 16.863400 6.050104 -25.353655 -2.502366 15.325423 0.508186 1.697798 8.503118 11.134433 -22.535163 53.322051 34.876344 -40.297220 27.894860 -9.676769 -17.876774 12.732031 -1.553795 7.972051 -3.041639 -5.066104 -34.602355 -47.370389 -27.979686 -42.624011 -41.492004 15.468343 -20.988154 -1.916104 1.118892 -16.509180 -1.709421 -9.928067 22.206259 0.461530 5.883172 -11.326586 3.339413 0.000000 0.000000 0.000000 11.717544 -4.034320 2.671263 1.078444 -1.454674 -0.994620 6.169129 -0.843915 1.000068 0.000000 0.000000 0.000000
25.026492 107.690535 258.727895 -132.537647 3.126479 -4.246813 -4.235795 7.867424 -0.073414 -1.876744 3.497205 0.039425 -1.876737 3.497209 0.039422 -1.407337 2.622818 0.040306 -12.617266 16.799129 5.990082 -25.298705 -2.641661 15.223692 0.439489 1.565898 8.457420 10.742906 -22.361104 53.333825 35.092402 -40.408386 28.018109 -9.844297 -17.842977 12.677887 -1.569818 7.822606 -3.114584 -5.402248 -34.392784 -47.166034 -28.057397 -42.784170 -41.635174 15.502861 -21.036964 -1.778294 0.828182 -16.409720 -2.281057 -9.045750 21.986328 0.468247 6.075799 -11.216687 3.514293 -0.000000 -0.000000 0.000000 12.955596 -3.916423 2.710114 0.541164 -1.537916 -0.966482 6.235185 -0.933893 0.963177 0.000000 0.000000 0.000000
24.992771 107.694837 258.526491 -133.250587 3.076088 -4.263114 -4.315213 7.894420 0.003200 -1.913227 3.508495 0.074995 -1.913222 3.508495 0.074993 -1.434895 2.631167 0.067221 -12.586934 16.731477 5.935032 -25.239998 -2.786510 15.130700 0.354603 1.421402 8.406307 10.288356 -22.202235 53.350363 35.321754 -40.495072 28.170381 -10.043319 -17.793780 12.608769 -1.600767 7.630896 -3.194461 -5.808030 -34.091917 -46.918141 -28.078707 -42.962004 -41.801874 15.462872 -21.111911 -1.641984 0.638975 -16.263054 -2.943020 -8.141281 21.714489 0.475174 6.435176 -11.151975 3.763316 -0.000000 -0.000000 -0.000000 14.203940 -3.784230 2.746883 -0.013056 -1.568539 -0.944541 6.284751 -1.054465 0.918984 0.000000 0.000000 0.000000
24.956736 107.695048 258.302917 -133.989338 3.012793 -4.256204 -4.400910 7.915852 0.069586 -1.952340 3.517389 0.106095 -1.952340 3.517389 0.106095 -1.464406 2.637735 0.090796 -12.554722 16.677798 5.880956 -25.175149 -2.906102 15.035498 0.280007 1.286005 8.341403 9.822362 -22.051839 53.396415 35.556051 -40.560627 28.314768 -10.239384 -17.727537 12.533144 -1.621352 7.449214 -3.289747 -6.136095 -33.805187 -46.736058 -28.079169 -43.109343 -41.969179 15.421850 -21.175338 -1.505847 0.403338 -16.121826 -3.631551 -7.248261 21.440563 0.509349 6.717764 -10.994745 3.901844 0.000000 0.000000 0.000000 15.360071 -3.635488 2.779994 -0.471958 -1.564146 -0.907656 6.380685 -1.199514 0.855318 0.000000 0.000000 0.000000
24.912272 107.691850 258.061798 -134.749711 2.941588 -4.222096 -4.504787 7.928139 0.125817 -1.999341 3.522315 0.132916 -1.999339 3.522335 0.132912 -1.499797 2.641364 0.111187 -12.518856 16.642357 5.825565 -25.099385 -2.993657 14.932476 0.229267 1.173828 8.248260 9.354480 -21.923331 53.487299 35.794969 -40.603782 28.437351 -10.423788 -17.637306 12.451544 -1.621605 7.311027 -3.411255 -6.347089 -33.581306 -46.642151 -28.053328 -43.218809 -42.148577 15.395264 -21.218579 -1.360116 0.090282 -15.996371 -4.358405 -6.347783 21.197502 0.607726 6.833246 -10.682679 3.803212 -0.000000 0.000000 -0.000000 16.415112 -3.468955 2.795093 -0.824089 -1.530184 -0.840955 6.527070 -1.365933 0.768269 0.000000 -0.000000 -0.000000
24.865494 107.684560 257.798508 -135.535968 2.858461 -4.164264 -4.614961 7.934367 0.172062 -2.048967 3.524602 0.155364 -2.048961 3.524630 0.155357 -1.537130 2.643006 0.128308 -12.481593 16.620885 5.770530 -25.018285 -3.055927 14.826323 0.188665 1.069974 8.140676 8.874903 -21.800513 53.608143 36.040392 -40.626150 28.551854 -10.604538 -17.529845 12.363992 -1.611895 7.182147 -3.549016 -6.482841 -33.374050 -46.609976 -28.003348 -43.298280 -42.331936 15.368132 -21.250616 -1.214456 -0.268847 -15.881637 -5.112350 -5.458413 20.952543 0.734218 6.876136 -10.273556 3.589615 -0.000000 0.000000 0.000000 17.377656 -3.284589 2.806668 -1.080807 -1.460638 -0.760312 6.720250 -1.556088 0.660919 0.000000 0.000000 0.000000
24.836478 107.673623 257.496210 -136.417825 2.765636 -4.093581 -4.690073 7.926684 0.199606 -2.082756 3.520835 0.168792 -2.082756 3.520835 0.168792 -1.562548 2.640088 0.138568 -12.450702 16.617710 5.717401 -24.945631 -3.082811 14.721136 0.143694 0.953411 8.052612 8.406420 -21.631358 53.736453 36.288842 -40.634613 28.661464 -10.773284 -17.425094 12.279278 -1.597431 7.013897 -3.680335 -6.520825 -33.149107 -46.670449 -27.973202 -43.321492 -42.467538 15.369397 -21.261877 -1.098452 -0.727131 -15.808681 -5.794259 -4.667735 20.661394 0.810760 6.884540 -9.801005 3.445295 0.000000 0.000000 0.000000 18.171685 -3.082171 2.853996 -1.164127 -1.355322 -0.691350 7.011558 -1.771451 0.531038 0.000000 -0.000000 0.000000
24.835625 107.660478 257.145545 -137.434964 2.660335 -4.013085 -4.703741 7.900891 0.201177 -2.088869 3.509309 0.169467 -2.088871 3.509282 0.169472 -1.567138 2.631401 0.139078 -12.433489 16.641951 5.668250 -24.893703 -3.055447 14.620848 0.081918 0.813996 8.001753 7.952380 -21.384184 53.871021 36.546948 -40.629893 28.760740 -10.923805 -17.330861 12.201077 -1.578943 6.767699 -3.790132 -6.451301 -32.882019 -46.843830 -27.972926 -43.260925 -42.529786 15.414425 -21.247189 -1.029830 -1.316079 -15.798432 -6.348909 -3.870007 20.331141 0.812383 6.884520 -9.224376 3.416770 -0.000000 0.000000 -0.000000 18.775878 -2.859051 2.959337 -1.034630 -1.212700 -0.657629 7.416900 -2.009918 0.377958 -0.000000 0.000000 -0.000000
24.852533 107.643686 256.755871 -138.547760 2.546345 -3.918646 -4.682075 7.860417 0.184976 -2.079013 3.491509 0.161501 -2.079009 3.491491 0.161503 -1.559694 2.618094 0.132983 -12.423393 16.684305 5.619998 -24.851550 -2.993161 14.520224 0.015997 0.662961 7.971213 7.510351 -21.089832 54.007394 36.809390 -40.611403 28.854719 -11.062993 -17.239929 12.126422 -1.553910 6.482693 -3.890793 -6.285447 -32.599417 -47.108894 -27.986611 -43.143459 -42.547881 15.487537 -21.211629 -0.991070 -2.003068 -15.831075 -6.829193 -3.169091 19.957447 0.770887 6.853622 -8.581206 3.445777 -0.000000 -0.000000 0.000000 19.211860 -2.616667 3.096705 -0.732454 -1.032634 -0.638002 7.920993 -2.271712 0.200355 -0.000000 0.000000 -0.000000
24.876079 107.619378 256.338419 -139.706941 2.435577 -3.810687 -4.662415 7.809040 0.165646 -2.070020 3.468904 0.152078 -2.070020 3.468904 0.152078 -1.552905 2.601199 0.125788 -12.407043 16.721424 5.566938 -24.797554 -2.943127 14.410301 -0.030739 0.511844 7.943422 7.094425 -20.791932 54.118168 37.054452 -40.583636 28.961862 -11.202581 -17.149847 12.053910 -1.522741 6.226781 -4.001114 -6.032054 -32.343349 -47.434432 -28.020464 -43.023853 -42.550724 15.571205 -21.161113 -0.959028 -2.744801 -15.876396 -7.298459 -2.965913 19.488792 0.702265 6.755261 -8.018774 3.556164 -0.000000 0.000000 -0.000000 19.468160 -2.361561 3.231731 -0.298769 -0.816585 -0.591508 8.528606 -2.561155 -0.005452 0.000000 0.000000 0.000000
24.892842 107.586900 255.902098 -140.903631 2.336633 -3.689443 -4.660335 7.742247 0.150886 -2.068932 3.439378 0.144830 -2.068945 3.439383 0.144833 -1.552067 2.579086 0.120252 -12.378200 16.748975 5.503827 -24.719378 -2.915903 14.280542 -0.040545 0.363420 7.908179 6.704732 -20.500970 54.188889 37.260163 -40.540202 29.107970 -11.342933 -17.062273 11.983918 -1.479639 6.028366 -4.142640 -5.654346 -32.140557 -47.840218 -28.086295 -42.914827 -42.542695 15.671095 -21.086634 -0.923395 -3.472149 -15.913263 -7.819776 -3.487862 18.874903 0.632545 6.595787 -7.589492 3.818312 0.000000 0.000000 -0.000000 19.472640 -2.094628 3.340581 0.281901 -0.561298 -0.488669 9.287950 -2.881377 -0.251145 -0.000000 -0.000000 0.000000
24.916243 107.546905 255.437998 -142.146755 2.241952 -3.554790 -4.659987 7.664411 0.133909 -2.068567 3.404960 0.136512 -2.068579 3.404970 0.136514 -1.551746 2.553306 0.113896 -12.342847 16.771161 5.436232 -24.628972 -2.900859 14.141899 -0.030963 0.215358 7.875969 6.340763 -20.208413 54.234207 37.448980 -40.486881 29.266239 -11.483862 -16.975597 11.915993 -1.431069 5.858025 -4.295267 -5.189804 -31.963641 -48.303490 -28.172230 -42.802872 -42.519127 15.781991 -20.997511 -0.894289 -4.254556 -15.966539 -8.329453 -4.501019 18.188602 0.571098 6.362977 -7.221378 4.153602 0.000000 0.000000 0.000000 19.297296 -1.815449 3.442226 0.994503 -0.266964 -0.362207 10.152214 -3.225334 -0.528301 -0.000000 0.000000 0.000000
24.975417 107.497486 254.930628 -143.413753 2.139016 -3.406767 -4.651773 7.592716 0.106896 -2.064531 3.373355 0.123675 -2.064531 3.373355 0.123675 -1.548634 2.529633 0.104138 -12.305279 16.777688 5.375581 -24.539887 -2.912898 14.018854 -0.031810 0.071293 7.859823 6.014937 -19.929397 54.273908 37.665678 -40.446823 29.376697 -11.635825 -16.881955 11.846988 -1.396880 5.697256 -4.416586 -4.758408 -31.773401 -48.730845 -28.251812 -42.703729 -42.493234 15.869619 -20.926582 -0.879033 -5.256575 -16.072391 -8.700131 -5.713142 17.560953 0.503308 5.990855 -6.887771 4.362965 0.000000 0.000000 0.000000 19.146816 -1.528173 3.568738 1.751771 0.058731 -0.262989 10.983610 -3.583408 -0.809133 0.000000 0.000000 0.000000
25.080129 107.440412 254.374833 -144.715395 2.024245 -3.245824 -4.623488 7.533841 0.064206 -2.051345 3.347592 0.103693 -2.051341 3.347574 0.103694 -1.538633 2.510355 0.088998 -12.265005 16.764469 5.332157 -24.455047 -2.957073 13.930784 -0.057098 -0.062890 7.866934 5.751554 -19.662928 54.318033 37.941622 -40.439113 29.393130 -11.802006 -16.776064 11.773795 -1.390254 5.538310 -4.489481 -4.381725 -31.562234 -49.101175 -28.318237 -42.611755 -42.471652 15.920256 -20.884889 -0.881870 -6.590510 -16.245045 -8.870349 -7.091091 17.004059 0.411039 5.381945 -6.593504 4.341377 0.000000 0.000000 -0.000000 19.061107 -1.222432 3.735702 2.576602 0.396840 -0.216507 11.728883 -3.949108 -1.074480 0.000000 0.000000 0.000000
